<?xml version="1.0" encoding="utf-8"?>
<!-- Generator: Adobe Illustrator 12.0.0, SVG Export Plug-In . SVG Version: 6.00 Build 51448)  -->
<!DOCTYPE svg PUBLIC "-//W3C//DTD SVG 1.1//EN" "http://www.w3.org/Graphics/SVG/1.1/DTD/svg11.dtd" [
	<!ENTITY ns_svg "http://www.w3.org/2000/svg">
	<!ENTITY ns_xlink "http://www.w3.org/1999/xlink">
]>
<svg  version="1.1" id="レイヤー_1" xmlns="&ns_svg;" xmlns:xlink="&ns_xlink;" width="80" height="82" viewBox="0 0 80 82"
	 overflow="visible" enable-background="new 0 0 80 82" xml:space="preserve">
<g>
	<circle fill="#FF5C5C" cx="39.5" cy="40.5" r="40"/>
	<path fill="#FF5C5C" stroke="#FFFFFF" stroke-width="1.0239" d="M4.75,40.5c0,19.161,15.589,34.75,34.75,34.75
		S74.25,59.661,74.25,40.5S58.661,5.75,39.5,5.75S4.75,21.339,4.75,40.5z"/>
	<text transform="matrix(0.9629 -0.2698 0.2698 0.9629 20.6963 38.3242)" font-family="'azukifontB'" font-size="16">店長</text>
	<text transform="matrix(0.9629 -0.2698 0.2698 0.9629 14.1611 61.9619)" font-family="'azukifontB'" font-size="16">イチオシ</text>
	<g enable-background="new    ">
		<path fill="#FFFFFF" stroke="#FFFFFF" stroke-width="0.5" d="M23.193,39.069c-0.132-0.006-0.252-0.041-0.361-0.102
			c-0.109-0.062-0.201-0.146-0.274-0.256l-0.109-0.391c-0.174-1.779-0.431-3.546-0.771-5.301s-0.592-3.485-0.757-5.191
			c-0.026-0.014-0.079-0.067-0.158-0.159c-0.08-0.091-0.123-0.222-0.127-0.394c-0.001-0.119,0.029-0.232,0.091-0.342
			c0.062-0.108,0.146-0.2,0.256-0.274c0.36-0.144,0.72-0.277,1.081-0.4c0.36-0.123,0.756-0.245,1.188-0.365l0.039,0.021l1.791-0.501
			l0.021,0.075l-0.039-0.022l-0.451-1.61l0.119-0.503c0.098-0.114,0.187-0.19,0.268-0.229s0.182-0.075,0.302-0.109
			c0.132,0.007,0.252,0.041,0.361,0.102c0.109,0.062,0.2,0.146,0.274,0.256l0.447,1.595l0.041,0.086l0.743-0.127l1.82-0.51
			l1.755-0.395l0.292-0.114c0.142,0.004,0.267,0.037,0.376,0.097c0.109,0.062,0.2,0.147,0.274,0.256l0.109,0.391
			c-0.006,0.132-0.04,0.253-0.102,0.361c-0.062,0.109-0.146,0.201-0.256,0.274l-0.397,0.144l-1.689,0.343l-1.835,0.514l-0.748,0.112
			l-3.205,0.898l-0.73,0.172l-0.492,0.154c0.14,1.736,0.39,3.534,0.749,5.396c0.36,1.863,0.593,3.758,0.701,5.686
			c-0.115,0.13-0.213,0.214-0.294,0.253C23.414,38.999,23.313,39.035,23.193,39.069z M26.461,38.283
			c-0.132-0.007-0.252-0.041-0.361-0.102c-0.109-0.062-0.201-0.146-0.274-0.255l-0.279-0.766l-0.417-1.49
			c-0.098-0.502-0.213-1.011-0.346-1.525c-0.133-0.514-0.174-1.043-0.121-1.589c0.105-0.127,0.198-0.209,0.279-0.249
			c0.081-0.039,0.176-0.074,0.287-0.105l0.128-0.003l0.864-0.274l0.475-0.101l-0.015,0.004l-0.778-3.125l-0.405-1.444l0.082-0.347
			c0.082-0.131,0.179-0.229,0.291-0.292c0.112-0.064,0.242-0.101,0.391-0.11c0.119,0,0.233,0.03,0.342,0.091
			c0.109,0.062,0.201,0.146,0.275,0.256l0.105,0.376l0.296,1.231l1.216-0.292c0.179-0.093,0.379-0.171,0.6-0.233
			c0.221-0.062,0.437-0.122,0.647-0.181l0.468-0.066l0.292-0.114c0.142,0.004,0.267,0.037,0.376,0.098
			c0.109,0.062,0.2,0.146,0.274,0.255l0.097,0.346c-0.034,0.15-0.076,0.271-0.126,0.36c-0.051,0.09-0.131,0.189-0.242,0.295
			l-0.593,0.199c-0.202,0.014-0.393,0.045-0.574,0.096c-0.181,0.051-0.361,0.102-0.542,0.152c-0.149,0.085-0.319,0.154-0.51,0.208
			c-0.191,0.053-0.376,0.105-0.557,0.156l-0.486,0.12l0.43,1.648l-0.056-0.082l0.181-0.051l0.879-0.279
			c0.388-0.043,0.783-0.1,1.186-0.17c0.402-0.069,0.826-0.08,1.273-0.032c0.167,0.094,0.265,0.194,0.294,0.299
			c0.029,0.105,0.059,0.209,0.086,0.309l-0.005,0.212c0.297,0.598,0.563,1.241,0.799,1.926c0.235,0.687,0.509,1.352,0.82,2.001
			c-0.001,0.151-0.032,0.282-0.093,0.391c-0.062,0.109-0.146,0.201-0.256,0.275l-0.376,0.105l-0.6-0.286l-0.036-0.071l-1.377,0.24
			l-1.655,0.463l-0.749,0.34l-0.686,0.16l-0.514,0.192c-0.024-0.048-0.034-0.005-0.028,0.13c0.005,0.133-0.044,0.269-0.146,0.406
			c-0.073,0.085-0.151,0.148-0.231,0.187C26.682,38.213,26.582,38.25,26.461,38.283z M31.59,34.753l-0.004-0.015
			c-0.169-0.449-0.333-0.896-0.489-1.339c-0.157-0.443-0.314-0.81-0.471-1.102c-0.259,0.041-0.574,0.086-0.944,0.135
			c-0.37,0.05-0.703,0.127-0.998,0.231l-0.021,0.039l-1.55,0.434L26.639,33.3l-0.55,0.122l-0.142,0.072l0.114,0l0.662,2.654
			l0.331-0.093c0.129-0.079,0.274-0.142,0.435-0.187s0.316-0.089,0.466-0.131l0.204-0.025l0.538-0.28l1.745-0.489
			c0.237-0.001,0.468-0.027,0.692-0.08C31.357,34.813,31.509,34.775,31.59,34.753z"/>
		<path fill="#FFFFFF" stroke="#FFFFFF" stroke-width="0.5" d="M40.117,34.376l-0.573-0.132l-0.29-0.341l-0.362-1.294
			c-0.16-0.723-0.298-1.447-0.414-2.172c-0.117-0.724-0.215-1.345-0.295-1.864l0.211-0.059c-0.346,0.119-0.705,0.236-1.078,0.351
			c-0.374,0.116-0.738,0.272-1.094,0.469l-0.538-0.125c-0.114-0.098-0.19-0.187-0.229-0.269c-0.039-0.08-0.074-0.176-0.105-0.287
			c-0.004-0.171,0.033-0.307,0.114-0.405c0.081-0.098,0.169-0.188,0.266-0.269c0.441-0.199,0.882-0.366,1.32-0.5
			c0.438-0.133,0.807-0.247,1.105-0.342l-0.021-0.075l-0.283-0.895c-0.165-0.743-0.32-1.489-0.465-2.239
			c-0.145-0.748-0.271-1.449-0.377-2.101c-0.049-0.019-0.116-0.083-0.201-0.195c-0.085-0.111-0.131-0.252-0.135-0.425
			c0.018-0.167,0.06-0.297,0.125-0.392c0.065-0.093,0.145-0.208,0.237-0.342l0.503-0.173l0.264-0.042
			c0.314-0.153,0.649-0.29,1.004-0.411c0.355-0.121,0.718-0.234,1.09-0.338c0.819-0.165,1.641-0.33,2.465-0.496
			s1.694-0.296,2.608-0.39c0.133,0.125,0.219,0.229,0.258,0.309c0.038,0.082,0.075,0.182,0.108,0.302
			c-0.007,0.132-0.04,0.252-0.102,0.361c-0.062,0.109-0.146,0.201-0.256,0.274l-0.782,0.219c-0.804,0.183-1.598,0.34-2.383,0.473
			c-0.785,0.134-1.568,0.31-2.351,0.529c-0.209,0.103-0.427,0.185-0.652,0.248c-0.226,0.063-0.371,0.115-0.436,0.154l0.178,0.924
			c0.119-0.076,0.255-0.142,0.408-0.195c0.152-0.053,0.312-0.114,0.476-0.182l1.385-0.388l0.021-0.038l1.475-0.414
			c0.438-0.058,0.894-0.147,1.368-0.27c0.474-0.122,0.962-0.156,1.464-0.102c0.167,0.094,0.267,0.196,0.297,0.306
			c0.031,0.111,0.063,0.221,0.093,0.331c-0.007,0.132-0.045,0.254-0.116,0.365c-0.071,0.112-0.157,0.204-0.256,0.274l-0.301,0.084
			c-0.368,0.038-0.738,0.099-1.109,0.181c-0.372,0.083-0.734,0.152-1.086,0.207l-1.234,0.346l-0.021,0.039L39.849,23.4l-1.076,0.448
			c0.004,0.054,0.031,0.169,0.082,0.35s0.082,0.292,0.093,0.331l1.031-0.257l1.286-0.393l0.054,0.018l1.294-0.362l0.038,0.021
			l1.324-0.371c0.227-0.041,0.464-0.091,0.712-0.151c0.249-0.059,0.521-0.026,0.814,0.097c0.102,0.091,0.171,0.177,0.21,0.257
			c0.039,0.082,0.075,0.182,0.109,0.302c-0.007,0.132-0.041,0.252-0.102,0.361c-0.062,0.11-0.146,0.202-0.256,0.275l-0.392,0.109
			l-0.747,0.112l-1.505,0.421l-0.038-0.021l-1.188,0.333l-1.212,0.307l-0.684,0.224l-0.426,0.103l0.172,0.731l0.013,0.045
			l0.226-0.063l0.022-0.039l1.745-0.489l2.359-0.499l1.324-0.371c0.252-0.027,0.516-0.08,0.792-0.157
			c0.275-0.077,0.54-0.129,0.791-0.157l1.535-0.43c0.132,0.006,0.252,0.041,0.361,0.102c0.108,0.062,0.2,0.146,0.274,0.256
			l0.093,0.331c-0.007,0.132-0.041,0.253-0.102,0.361c-0.063,0.109-0.144,0.194-0.245,0.255l-0.168,0.096l-1.399,0.392
			c-0.252,0.028-0.517,0.08-0.792,0.157s-0.539,0.13-0.791,0.157l-1.324,0.371c-0.413,0.073-0.822,0.155-1.229,0.247
			c-0.406,0.093-0.727,0.166-0.96,0.22l-0.089-0.316c0.44,0.18,0.904,0.391,1.395,0.632c0.489,0.242,0.959,0.451,1.409,0.627
			l-0.075,0.021c0.226-0.388,0.477-0.817,0.75-1.289c0.273-0.471,0.674-0.846,1.202-1.124c0.154,0.012,0.286,0.048,0.396,0.108
			c0.109,0.062,0.2,0.146,0.274,0.256l0.113,0.406c-0.297,0.408-0.57,0.799-0.823,1.172c-0.252,0.374-0.475,0.739-0.667,1.095
			l-0.033-0.12c0.612,0.218,1.273,0.453,1.981,0.702c0.708,0.251,1.427,0.556,2.154,0.914l0.118,0.421
			c-0.007,0.131-0.04,0.251-0.102,0.361c-0.062,0.109-0.146,0.201-0.256,0.274l-0.376,0.105l-0.332-0.085
			c-1.418-0.501-2.82-1.048-4.209-1.644c-1.39-0.594-2.79-1.251-4.203-1.97l-0.047-0.166l-0.346,0.097l-0.634,0.226
			c0.097,0.655,0.209,1.386,0.339,2.193c0.129,0.808,0.271,1.53,0.429,2.167l-0.226,0.063c0.23-0.259,0.5-0.502,0.809-0.73
			c0.311-0.227,0.662-0.429,1.057-0.604c0.151,0.001,0.281,0.033,0.391,0.093c0.109,0.062,0.2,0.146,0.274,0.255l0.093,0.331
			c-0.022,0.191-0.081,0.339-0.175,0.447c-0.095,0.107-0.19,0.201-0.286,0.283c-0.389,0.195-0.734,0.459-1.035,0.793
			C40.937,33.762,40.563,34.077,40.117,34.376z"/>
	</g>
	<g enable-background="new    ">
		<path fill="#FFFFFF" stroke="#FFFFFF" stroke-width="0.5" d="M22.521,60.642c-0.131-0.007-0.252-0.041-0.361-0.102
			c-0.11-0.062-0.201-0.146-0.274-0.256l-0.428-1.064l-0.502-1.791l-0.11-0.163l-0.456-1.625l-0.229-0.585l-0.497-1.775l0.006,0.079
			l0.316-0.088c-0.492,0.83-1.028,1.678-1.607,2.543c-0.58,0.866-1.158,1.736-1.735,2.612l-0.376,0.105
			c-0.131-0.006-0.252-0.04-0.361-0.102s-0.201-0.147-0.274-0.256l-0.118-0.422c1.117-1.881,2.27-3.704,3.457-5.471
			c1.188-1.766,2.408-3.539,3.662-5.318l0.451-0.126c0.142,0.004,0.27,0.035,0.384,0.095c0.114,0.061,0.208,0.145,0.282,0.254
			l0.109,0.391c-0.541,0.813-1.064,1.589-1.57,2.331c-0.506,0.742-0.984,1.468-1.434,2.179l0.171,0.844l0.48,1.716l0.229,0.585
			l0.438,1.564l0.111,0.163l0.493,1.761l0.427,1.179c-0.004,0.141-0.036,0.267-0.097,0.376c-0.062,0.108-0.147,0.2-0.256,0.274
			L22.521,60.642z"/>
		<path fill="#FFFFFF" stroke="#FFFFFF" stroke-width="0.5" d="M36.646,56.846c-0.131-0.007-0.252-0.04-0.361-0.102
			c-0.11-0.062-0.2-0.142-0.271-0.24l-0.11-0.277c-0.046-1.015-0.111-2.035-0.193-3.062s-0.2-1.95-0.355-2.772l-2.618,0.733
			c-0.285,0.102-0.573,0.215-0.862,0.339c-0.29,0.125-0.613,0.227-0.97,0.304c-0.172,0.006-0.361,0.043-0.569,0.111
			c-0.208,0.069-0.436,0.047-0.684-0.068c-0.102-0.09-0.171-0.176-0.21-0.258c-0.039-0.08-0.079-0.196-0.122-0.347l0.302-0.604
			l0.677-0.19c0.192-0.01,0.378-0.041,0.559-0.091c0.181-0.051,0.356-0.1,0.526-0.147l0.944-0.395l2.844-0.797L34.9,46.561
			l0.06-0.017c-0.639,0.309-1.321,0.576-2.047,0.801c-0.727,0.226-1.43,0.515-2.11,0.867c-0.155-0.011-0.287-0.047-0.396-0.108
			c-0.109-0.061-0.201-0.146-0.274-0.256l-0.101-0.361l0.215-0.563c1.382-0.55,2.726-1.083,4.03-1.601
			c1.304-0.517,2.605-1.087,3.902-1.71c0.151,0.002,0.282,0.033,0.391,0.094c0.109,0.062,0.2,0.146,0.274,0.256l0.093,0.331
			c-0.006,0.132-0.04,0.252-0.102,0.36c-0.062,0.11-0.146,0.202-0.256,0.275c-0.445,0.146-0.861,0.342-1.248,0.584
			c-0.386,0.244-0.741,0.427-1.063,0.55l0.285,2.581c0.556-0.101,1.207-0.246,1.955-0.434c0.748-0.188,1.496-0.376,2.243-0.564
			l0.368-0.135c0.116-0.011,0.235-0.018,0.359-0.021c0.124-0.002,0.254,0.049,0.392,0.15c0.085,0.073,0.147,0.151,0.187,0.231
			c0.039,0.082,0.075,0.182,0.108,0.303c-0.007,0.132-0.04,0.252-0.102,0.361s-0.146,0.201-0.256,0.274l-0.436,0.122l-0.016,0.004
			l-1.384,0.388c-0.583,0.121-1.168,0.253-1.755,0.395c-0.587,0.144-1.091,0.257-1.51,0.343c0.175,0.936,0.314,1.954,0.417,3.055
			c0.103,1.102,0.142,2.224,0.116,3.367c-0.115,0.13-0.213,0.214-0.294,0.253C36.866,56.776,36.766,56.813,36.646,56.846z"/>
		<path fill="#FFFFFF" stroke="#FFFFFF" stroke-width="0.5" d="M53.247,52.275l-0.523-0.129c-0.111-0.089-0.194-0.181-0.249-0.279
			s-0.099-0.208-0.132-0.328l-0.109-0.505l-0.355-0.923l-0.776-2.768l-0.396-1.188L50.3,44.712l0.301-0.084
			c-0.475,1.28-0.975,2.592-1.502,3.934c-0.527,1.344-1.007,2.708-1.44,4.096c-0.087,0.154-0.183,0.246-0.288,0.275
			s-0.214,0.06-0.323,0.091c-0.132-0.007-0.252-0.038-0.359-0.095c-0.107-0.056-0.198-0.139-0.272-0.248l-0.101-0.361
			c0.444-1.541,0.949-3.026,1.518-4.457c0.567-1.43,1.06-2.712,1.478-3.847l-0.045,0.013l-1.9,0.63l-1.385,0.389l-0.277,0.109
			l-1.139,0.222l-0.585,0.229c-0.142-0.003-0.267-0.036-0.376-0.098c-0.109-0.061-0.2-0.146-0.274-0.256l-0.101-0.361
			c0.006-0.131,0.04-0.251,0.102-0.36c0.061-0.109,0.146-0.201,0.255-0.275l1.066-0.363c0.146-0.019,0.295-0.05,0.445-0.092
			c0.15-0.043,0.253-0.061,0.31-0.055l-0.016,0.004l1.595-0.446l2.457-0.786l0.14-0.022l-0.059-0.211l-0.038-0.021l-0.367-1.309
			l-0.161-0.458c-0.039-0.216-0.084-0.436-0.136-0.66c-0.052-0.223-0.004-0.458,0.144-0.706c0.08-0.097,0.161-0.167,0.242-0.206
			s0.182-0.075,0.302-0.109c0.132,0.006,0.252,0.041,0.361,0.102c0.109,0.062,0.2,0.146,0.274,0.256l0.105,0.376
			c0.005,0.172,0.023,0.334,0.056,0.487c0.031,0.153,0.063,0.286,0.095,0.396l0.038,0.021l0.371,1.324l0.12,0.372l0.531-0.132
			l0.193-0.119l1.926-0.54l0.626-0.143l1.548-0.499c0.142,0.004,0.267,0.037,0.376,0.097c0.108,0.062,0.2,0.146,0.274,0.256
			l0.093,0.331c-0.007,0.132-0.04,0.253-0.102,0.361c-0.062,0.109-0.146,0.201-0.256,0.274l-2.292,0.739l-0.054-0.018l-1.715,0.48
			l-0.345,0.161l-0.35,0.082l0.135,0.481l0.038,0.021l0.502,1.791l0.397,1.187l0.742,2.648c0.124,0.289,0.236,0.594,0.337,0.911
			c0.1,0.319,0.198,0.652,0.297,1.004c-0.007,0.132-0.04,0.252-0.102,0.361c-0.062,0.108-0.144,0.194-0.245,0.255L53.247,52.275z"/>
		<path fill="#FFFFFF" stroke="#FFFFFF" stroke-width="0.5" d="M64.377,42.195c-0.623-0.063-1.22-0.183-1.788-0.358
			s-1.151-0.326-1.749-0.451c-0.154-0.086-0.246-0.183-0.275-0.288c-0.029-0.105-0.06-0.212-0.091-0.323
			c0.007-0.132,0.04-0.251,0.102-0.361c0.062-0.108,0.147-0.2,0.256-0.274l0.481-0.135c0.582,0.184,1.154,0.353,1.717,0.509
			c0.563,0.157,1.147,0.274,1.754,0.353c0.116,0.108,0.194,0.203,0.233,0.283c0.039,0.082,0.075,0.182,0.109,0.302
			c-0.007,0.131-0.04,0.252-0.102,0.361c-0.062,0.109-0.146,0.201-0.256,0.274L64.377,42.195z M64.546,39.033
			c-0.608-0.316-1.203-0.568-1.786-0.757c-0.583-0.188-1.182-0.434-1.797-0.738l-0.109-0.391c0.006-0.131,0.045-0.253,0.116-0.365
			c0.071-0.111,0.156-0.203,0.256-0.274l0.421-0.118c0.605,0.231,1.2,0.441,1.783,0.628c0.582,0.188,1.164,0.488,1.744,0.898
			l0.105,0.376c-0.007,0.132-0.04,0.253-0.102,0.361c-0.062,0.109-0.146,0.201-0.256,0.274L64.546,39.033z M66.352,48.198
			l-0.592-0.143l-0.315-0.431c0.003-0.336,0.073-0.615,0.211-0.838s0.263-0.441,0.376-0.657c0.899-1.345,1.719-2.734,2.458-4.17
			c0.739-1.434,1.503-2.868,2.292-4.301c0.063-0.125,0.154-0.219,0.278-0.281c0.123-0.061,0.259-0.097,0.408-0.106
			c0.118,0,0.232,0.03,0.342,0.091c0.109,0.062,0.2,0.147,0.274,0.256l0.105,0.376c-0.882,1.643-1.745,3.27-2.592,4.88
			c-0.847,1.611-1.756,3.153-2.728,4.626l-0.093,0.367L66.352,48.198z"/>
	</g>
</g>
</svg>
