<?xml version="1.0" encoding="utf-8"?>
<!-- Generator: Adobe Illustrator 12.0.0, SVG Export Plug-In . SVG Version: 6.00 Build 51448)  -->
<!DOCTYPE svg PUBLIC "-//W3C//DTD SVG 1.1//EN" "http://www.w3.org/Graphics/SVG/1.1/DTD/svg11.dtd" [
	<!ENTITY ns_svg "http://www.w3.org/2000/svg">
	<!ENTITY ns_xlink "http://www.w3.org/1999/xlink">
]>
<svg  version="1.1" id="レイヤー_1" xmlns="&ns_svg;" xmlns:xlink="&ns_xlink;" width="80" height="82" viewBox="0 0 80 82"
	 overflow="visible" enable-background="new 0 0 80 82" xml:space="preserve">
<g>
	<polygon fill="#E7211A" stroke="#E7211A" stroke-width="0.6933" points="40,0.095 47.281,9.097 57.747,4.146 60.403,15.415 
		71.981,15.496 69.482,26.802 79.88,31.896 72.723,41 79.88,50.104 69.482,55.198 71.981,66.504 60.403,66.585 57.747,77.855 
		47.281,72.903 40,81.905 32.719,72.903 22.25,77.855 19.596,66.585 8.017,66.504 10.515,55.198 0.12,50.104 7.275,41 0.12,31.896 
		10.515,26.802 8.017,15.496 19.596,15.415 22.25,4.146 32.719,9.097 	"/>
	<text transform="matrix(0.9629 -0.2698 0.2698 0.9629 24.4731 39.168)"><tspan x="0" y="0" fill="#FFFFFF" font-family="'KozGoPro-Heavy-90ms-RKSJ-H'" font-size="15">店長</tspan><tspan x="-15" y="15.412" fill="#FFFFFF" font-family="'KozGoPro-Heavy-90ms-RKSJ-H'" font-size="15">イチオシ</tspan></text>
</g>
</svg>
