<?xml version="1.0" encoding="utf-8"?>
<!-- Generator: Adobe Illustrator 12.0.0, SVG Export Plug-In . SVG Version: 6.00 Build 51448)  -->
<!DOCTYPE svg PUBLIC "-//W3C//DTD SVG 1.1//EN" "http://www.w3.org/Graphics/SVG/1.1/DTD/svg11.dtd" [
	<!ENTITY ns_svg "http://www.w3.org/2000/svg">
	<!ENTITY ns_xlink "http://www.w3.org/1999/xlink">
]>
<svg  version="1.1" xmlns="&ns_svg;" xmlns:xlink="&ns_xlink;" width="124.088" height="126.362" viewBox="0 0 124.088 126.362"
	 overflow="visible" enable-background="new 0 0 124.088 126.362" xml:space="preserve">
<g id="レイヤー_1">
</g>
<g id="header">
	<g>
		<path fill="#4AA1FF" d="M21.855,125.479c-0.314-0.063-0.503-0.125-0.629-0.251c-0.125-0.126-0.252-0.252-0.314-0.378
			c-0.315-0.945-0.628-1.89-0.943-2.836c-0.313-0.944-0.565-1.826-0.691-2.583c-0.314,0-0.692-0.063-1.194-0.063
			c-0.502-0.063-1.005-0.063-1.571-0.125l-0.943,0.063l-0.377-0.063c-0.189,0.945-0.503,1.889-0.881,2.898
			c-0.376,1.008-0.754,2.078-1.131,3.087c-0.251,0.126-0.44,0.188-0.629,0.188h-0.566c-0.188-0.063-0.376-0.125-0.565-0.252
			c-0.125-0.126-0.251-0.251-0.314-0.377l-0.062-0.379c0.879-2.773,1.697-5.545,2.452-8.315c0.753-2.772,1.697-5.483,2.828-8.254
			c0.251-0.126,0.441-0.253,0.692-0.315c0.252-0.063,0.503-0.127,0.88-0.063c0.188,0.063,0.376,0.188,0.502,0.252
			c0.125,0.126,0.251,0.25,0.377,0.376c0.755,2.774,1.509,5.546,2.2,8.318c0.693,2.771,1.446,5.544,2.327,8.316
			c-0.063,0.188-0.189,0.314-0.378,0.44c-0.125,0.127-0.314,0.189-0.565,0.252h-0.502V125.479z M18.837,117.731
			c-0.315-1.07-0.629-2.27-0.942-3.466c-0.314-1.197-0.565-2.331-0.817-3.401h0.566c-0.377,1.008-0.755,2.141-1.132,3.275
			c-0.378,1.196-0.628,2.269-0.88,3.213h0.628l0.881-0.063c0.377,0.063,0.754,0.063,1.131,0.126c0.377,0,0.692,0.063,0.881,0.063
			L18.837,117.731z"/>
		<path fill="#4AA1FF" d="M34.238,126.3c-0.314-0.063-0.502-0.125-0.628-0.252s-0.252-0.253-0.315-0.379l-0.377-0.693h0.377
			c-0.125,0.063-0.315,0.127-0.566,0.189c-0.252,0.063-0.503,0.126-0.818,0.126l-0.565-0.063l-0.251,0.063
			c-0.818,0-1.636-0.126-2.39-0.315c-0.754-0.188-1.445-0.566-2.011-1.008c-0.817-1.197-1.383-2.457-1.572-3.779
			c-0.188-1.324-0.314-2.584-0.314-3.907c0.126-1.196,0.376-2.394,0.816-3.591c0.441-1.135,1.133-2.268,2.012-3.34
			c0.628-0.377,1.383-0.629,2.138-0.691c0.753-0.063,1.571-0.063,2.325-0.063c0.44,0.063,0.755,0.188,1.07,0.378
			c0.251,0.189,0.566,0.377,0.879,0.566c0.942,1.387,1.572,2.834,1.949,4.348c0.376,1.449,0.502,2.961,0.502,4.473
			c0,0.946-0.126,1.891-0.314,2.898c-0.188,0.945-0.628,1.827-1.258,2.584c0.063,0.189,0.126,0.378,0.377,0.692
			c0.189,0.252,0.315,0.63,0.378,1.07l-0.44,0.569c-0.189,0.125-0.378,0.125-0.566,0.188C34.615,126.3,34.426,126.3,34.238,126.3
			 M30.97,123.464c0.252-0.126,0.503-0.252,0.691-0.314c0.25-0.063,0.376-0.063,0.376-0.063v0.188
			c-0.251-0.504-0.502-1.007-0.753-1.511c-0.252-0.505-0.504-1.071-0.756-1.765l0.441-0.629c0.189-0.127,0.377-0.189,0.566-0.189
			h0.565c0.189,0.063,0.377,0.126,0.566,0.252c0.126,0.125,0.252,0.252,0.314,0.378c0.126,0.378,0.252,0.755,0.504,1.07
			c0.188,0.378,0.376,0.63,0.439,0.883h-0.439c0.313-0.567,0.502-1.261,0.565-2.017c0.063-0.82,0.063-1.639,0.063-2.457
			c0-1.197-0.188-2.331-0.502-3.466c-0.378-1.134-0.881-2.204-1.51-3.212c-0.126-0.063-0.314-0.127-0.565-0.127h-0.881
			c-0.251,0-0.503,0.064-0.692,0.064c-0.188,0-0.377,0.063-0.503,0.125c-0.691,0.945-1.194,1.891-1.571,2.961
			c-0.315,1.008-0.565,2.143-0.628,3.276c0.063,1.009,0.125,2.015,0.313,3.024c0.189,1.008,0.503,1.891,0.944,2.771
			c0.315,0.252,0.755,0.441,1.194,0.566C30.215,123.401,30.655,123.464,30.97,123.464"/>
		<path fill="#4AA1FF" d="M44.547,125.354c-0.566,0-1.131-0.063-1.571-0.252c-0.441-0.189-0.881-0.379-1.32-0.631
			c-0.943-0.755-1.446-1.638-1.635-2.582c-0.189-0.945-0.25-1.892-0.377-2.836v-4.157l-0.063-1.136l0.063-0.063v-2.709
			c0.063-0.252,0.063-0.566,0.063-0.881c-0.063-0.316,0.125-0.694,0.566-0.945c0.189-0.127,0.377-0.127,0.503-0.189h0.566
			c0.189,0.063,0.376,0.125,0.565,0.252c0.126,0.125,0.252,0.252,0.315,0.44v0.442l-0.126,1.008v2.771l-0.063,0.883h0.063v4.283
			c0.126,0.757,0.188,1.512,0.251,2.205c0.064,0.693,0.378,1.323,0.944,1.827c0.189,0.127,0.439,0.252,0.628,0.315
			c0.252,0.063,0.503,0.127,0.818,0.063c0.314,0,0.629,0,0.879-0.063c0.251-0.063,0.441-0.188,0.565-0.379l0.567-0.566h0.063
			c0.188-0.252,0.314-0.566,0.377-1.008s0.189-0.883,0.314-1.26v-1.953l0.126-0.315v-1.765l-0.063-0.063v-1.953
			c-0.063-0.126-0.125-0.315-0.125-0.504c0-0.189,0-0.378-0.063-0.566v-2.836c0.063-0.189,0.063-0.379,0.125-0.63
			c0-0.253,0.188-0.44,0.503-0.63c0.188-0.063,0.313-0.127,0.502-0.127h0.566c0.189,0.063,0.376,0.127,0.565,0.252
			c0.126,0.127,0.252,0.252,0.314,0.441v1.01l-0.062,0.063v2.457l0.188,1.008v1.699l0.063,0.063v2.269l-0.125,0.189v1.891
			c-0.125,0.756-0.314,1.512-0.566,2.268c-0.188,0.757-0.754,1.449-1.634,1.953c-0.439,0.378-0.942,0.63-1.509,0.756
			C45.679,125.291,45.113,125.354,44.547,125.354"/>
		<path fill="#4AA1FF" d="M63.343,125.479c-0.314-0.063-0.503-0.125-0.628-0.251c-0.126-0.126-0.252-0.252-0.315-0.378
			c-0.314-0.945-0.628-1.89-0.943-2.836c-0.313-0.944-0.565-1.826-0.69-2.583c-0.315,0-0.693-0.063-1.196-0.063
			c-0.502-0.063-1.005-0.063-1.571-0.125l-0.944,0.063l-0.376-0.063c-0.189,0.945-0.503,1.889-0.881,2.898
			c-0.377,1.008-0.753,2.078-1.131,3.087c-0.251,0.126-0.44,0.188-0.629,0.188h-0.566c-0.188-0.063-0.376-0.125-0.565-0.252
			c-0.126-0.126-0.252-0.251-0.313-0.377l-0.063-0.379c0.879-2.773,1.697-5.545,2.451-8.315c0.753-2.772,1.697-5.483,2.828-8.254
			c0.252-0.126,0.441-0.253,0.692-0.315c0.252-0.063,0.503-0.127,0.88-0.063c0.188,0.063,0.376,0.188,0.502,0.252l0.377,0.376
			c0.755,2.774,1.509,5.546,2.201,8.318c0.691,2.771,1.444,5.544,2.325,8.316c-0.063,0.188-0.188,0.314-0.377,0.44
			c-0.125,0.127-0.314,0.189-0.564,0.252h-0.504V125.479z M60.388,117.731c-0.315-1.07-0.629-2.27-0.942-3.466
			c-0.315-1.197-0.566-2.331-0.818-3.401h0.566c-0.377,1.008-0.755,2.141-1.132,3.275c-0.378,1.196-0.629,2.269-0.881,3.213h0.629
			l0.881-0.063c0.377,0.063,0.755,0.063,1.131,0.126c0.377,0,0.692,0.063,0.881,0.063L60.388,117.731z"/>
		<path fill="#4AA1FF" d="M86.602,125.417c-0.817,0-1.572-0.063-2.201-0.314c-0.69-0.252-1.256-0.567-1.822-0.945
			c-0.503-0.44-0.88-0.945-1.132-1.449c-0.251-0.504-0.377-1.07-0.44-1.701c0.063-0.189,0.189-0.314,0.314-0.441
			c0.126-0.125,0.314-0.188,0.566-0.252h0.629c0.251,0.127,0.439,0.189,0.565,0.314c0.126,0.127,0.252,0.253,0.377,0.379
			c0.063,0.441,0.189,0.883,0.377,1.197c0.188,0.378,0.502,0.693,0.88,0.945c0.314,0.127,0.629,0.252,0.943,0.314
			c0.314,0.064,0.691,0.127,1.068,0.064c0.314-0.127,0.629-0.316,0.881-0.568c0.313-0.252,0.564-0.504,0.69-0.818
			c0.126-0.252,0.252-0.504,0.313-0.819c0.063-0.315,0.127-0.63,0.063-0.945c-0.063-0.566-0.313-1.07-0.691-1.511
			c-0.376-0.506-0.879-0.883-1.444-1.324c-0.755-0.504-1.51-0.945-2.327-1.449c-0.816-0.441-1.445-1.07-1.947-1.828
			c-0.127-0.44-0.252-0.818-0.315-1.259c-0.063-0.378-0.063-0.819-0.063-1.323c0.126-0.504,0.251-1.008,0.503-1.449
			c0.188-0.504,0.565-0.883,1.132-1.26c0.502-0.314,1.005-0.504,1.57-0.566c0.566-0.127,1.132-0.127,1.761-0.127
			c0.566,0,1.068,0.063,1.571,0.252s0.943,0.378,1.32,0.693c0.503,0.378,0.88,0.818,1.258,1.26c0.314,0.441,0.439,1.008,0.377,1.639
			c-0.063,0.189-0.188,0.314-0.313,0.441c-0.127,0.125-0.315,0.188-0.566,0.252h-0.566c-0.188-0.063-0.377-0.127-0.565-0.252
			c-0.126-0.127-0.252-0.252-0.314-0.441c-0.063-0.378-0.126-0.631-0.314-0.945c-0.188-0.252-0.44-0.504-0.755-0.756
			c-0.251-0.189-0.502-0.253-0.879-0.253h-1.069l-0.943,0.442c-0.188,0.252-0.377,0.629-0.503,1.008
			c-0.125,0.377-0.188,0.818-0.063,1.26c0.063,0.314,0.126,0.566,0.314,0.881c0.126,0.253,0.377,0.504,0.691,0.693
			c0.881,0.505,1.823,1.135,2.766,1.764c0.943,0.631,1.761,1.324,2.326,2.206c0.252,0.503,0.441,0.946,0.566,1.513
			c0.126,0.504,0.188,1.07,0.126,1.638c-0.126,0.44-0.314,0.882-0.503,1.323c-0.189,0.379-0.504,0.756-0.881,1.135
			c-0.314,0.314-0.629,0.566-1.006,0.755c-0.377,0.252-0.755,0.441-1.194,0.63H86.602z"/>
		<path fill="#4AA1FF" d="M96.093,125.544l-0.942-0.379c-0.188-0.252-0.251-0.441-0.251-0.629c0-0.189,0-0.379-0.063-0.567
			l0.126-0.504l-0.063-0.253l0.063-1.574h-0.063v-1.701l-0.063-0.063v-3.718l0.126-0.566v-2.394l0.063-0.063v-3.97l0.439-0.63
			c0.314-0.125,0.629-0.252,0.88-0.252h0.755l0.377,0.063h2.577c0.188,0.063,0.378,0.063,0.566,0.063h0.628l1.761-0.063
			c0.252,0.063,0.503,0.063,0.88,0.063c0.377-0.063,0.691,0.063,0.943,0.314c0.126,0.126,0.188,0.252,0.188,0.377
			c0,0.127,0.063,0.253,0.063,0.441c-0.063,0.189-0.188,0.315-0.314,0.441c-0.126,0.127-0.314,0.188-0.565,0.252l-1.444,0.064
			l-0.441-0.064l-1.32,0.127l-1.384-0.127h-2.388l0.251,0.064v3.086l-0.063,0.063v2.143v0.126h0.126
			c0.565-0.063,1.132-0.126,1.761-0.126c0.564,0,1.193-0.063,1.885-0.063c0.503,0.063,1.006,0.126,1.573,0.188
			c0.563,0,1.067,0.126,1.633,0.378c0.125,0.189,0.251,0.315,0.251,0.44c0,0.126,0.063,0.253,0.063,0.442
			c-0.063,0.189-0.189,0.314-0.314,0.44c-0.126,0.126-0.314,0.188-0.503,0.253l-0.566,0.063c-0.628,0-1.193-0.063-1.696-0.189
			c-0.503-0.063-1.068-0.126-1.634-0.063c-0.504,0-1.006,0.063-1.508,0.063c-0.505,0-0.819,0.063-1.07,0.063v1.954l0.063,0.063v1.7
			l0.063,0.063v2.143h3.018l0.565,0.062l1.886-0.062c0.378,0.062,0.817,0.062,1.257,0.062c0.44-0.062,0.88,0.063,1.32,0.379
			c0.126,0.126,0.188,0.315,0.252,0.378c0,0.127,0.063,0.252,0.063,0.44c-0.063,0.189-0.188,0.315-0.314,0.44
			c-0.126,0.127-0.314,0.189-0.503,0.253l-0.44,0.063l-2.702-0.063l-1.32,0.063l-0.378-0.063h-3.205L96.093,125.544z"/>
		<path fill="#4AA1FF" d="M118.724,125.479c-0.314-0.063-0.504-0.125-0.629-0.251c-0.126-0.126-0.252-0.252-0.314-0.378
			c-0.314-0.945-0.629-1.89-0.943-2.836c-0.314-0.944-0.565-1.826-0.691-2.583c-0.315,0-0.691-0.063-1.194-0.063
			c-0.503-0.063-1.006-0.063-1.571-0.125l-0.943,0.063l-0.377-0.127c-0.188,0.946-0.502,1.892-0.881,2.899
			c-0.376,1.009-0.753,2.079-1.131,3.087c-0.251,0.127-0.439,0.189-0.628,0.189h-0.566c-0.188-0.063-0.377-0.126-0.565-0.252
			c-0.126-0.126-0.252-0.252-0.314-0.378l-0.063-0.378c0.881-2.772,1.698-5.545,2.452-8.316c0.755-2.772,1.697-5.482,2.829-8.254
			c0.251-0.126,0.439-0.252,0.691-0.314c0.251-0.064,0.503-0.126,0.88-0.064c0.188,0.064,0.377,0.189,0.502,0.253
			c0.127,0.126,0.252,0.253,0.378,0.376c0.754,2.773,1.509,5.547,2.2,8.318s1.445,5.545,2.325,8.316
			c-0.063,0.189-0.188,0.315-0.377,0.441c-0.126,0.126-0.314,0.189-0.565,0.252h-0.502V125.479z M115.768,117.731
			c-0.313-1.07-0.628-2.27-0.941-3.466c-0.314-1.197-0.566-2.331-0.817-3.401h0.565c-0.377,1.008-0.755,2.141-1.132,3.275
			c-0.377,1.196-0.629,2.269-0.88,3.213h0.629l0.88-0.063c0.377,0.063,0.755,0.063,1.131,0.126c0.377,0,0.691,0.063,0.88,0.063
			L115.768,117.731z"/>
		<path fill="none" stroke="#4AA1FF" stroke-width="5.4504" stroke-linecap="round" stroke-linejoin="round" d="M103.95,76.526
			c0,0,7.983,8.568,9.807,10.395c1.822,1.827,7.605-5.354,7.605-16.883c0-11.531-5.783-18.714-7.605-16.886
			c-1.823,1.828-9.807,10.396-9.807,10.396"/>
		<path fill="none" stroke="#4AA1FF" stroke-width="5.4504" stroke-linecap="round" stroke-linejoin="round" d="M98.607,64.178
			c-9.115-9.136-19.109-19.972-37.339-19.216C19.717,46.663,20.975,86.796,56.24,90.64c20.492,2.268,39.476-9.955,40.733-11.216"/>
		<path fill="none" stroke="#4AA1FF" stroke-width="5.4504" stroke-linecap="round" stroke-linejoin="round" d="M55.359,40.236
			c-0.628,2.583,3.331-17.893,22.818-0.315c1.886,1.702,3.458,3.088,4.652,5.355"/>
		<path fill="none" stroke="#4AA1FF" stroke-width="5.4504" stroke-linecap="round" stroke-linejoin="round" d="M52.216,94.293
			c-0.063,4.158,2.641,9.073,6.223,9.073c2.451,0,4.464-3.34,5.344-6.301"/>
		<path fill="none" stroke="#4AA1FF" stroke-width="5.4504" stroke-linecap="round" stroke-linejoin="round" d="M62.337,50.379
			c0.503,10.459-0.378,21.106-0.566,31.503"/>
		<path fill="none" stroke="#4AA1FF" stroke-width="5.4504" stroke-linecap="round" stroke-linejoin="round" d="M72.207,50.064
			c-0.314,3.277-0.566,6.743,0,9.892c12.696-0.125,14.897,15.5,1.508,14.618c-0.629,2.646-0.566,7.813-0.314,8.694"/>
		
			<ellipse fill="none" stroke="#4AA1FF" stroke-width="2.7247" stroke-linecap="round" stroke-linejoin="round" cx="26.066" cy="49.687" rx="4.652" ry="4.662"/>
		<path fill="none" stroke="#4AA1FF" stroke-width="2.7247" stroke-linecap="round" stroke-linejoin="round" d="M15.946,32.297
			c0,4.033-3.269,7.309-7.292,7.309c-4.022,0-7.291-3.276-7.291-7.309c0-4.032,3.269-7.308,7.291-7.308
			C12.677,24.925,15.946,28.203,15.946,32.297z"/>
		<path fill="none" stroke="#4AA1FF" stroke-width="2.7247" stroke-linecap="round" stroke-linejoin="round" d="M35.307,12.01
			c0,5.859-4.715,10.584-10.56,10.584c-5.847,0-10.561-4.725-10.561-10.584C14.124,6.151,18.837,1.362,24.684,1.362
			C30.529,1.362,35.307,6.151,35.307,12.01z"/>
	</g>
</g>
</svg>
