<?xml version="1.0" encoding="utf-8"?>
<!-- Generator: Adobe Illustrator 12.0.0, SVG Export Plug-In . SVG Version: 6.00 Build 51448)  -->
<!DOCTYPE svg PUBLIC "-//W3C//DTD SVG 1.1//EN" "http://www.w3.org/Graphics/SVG/1.1/DTD/svg11.dtd" [
	<!ENTITY ns_svg "http://www.w3.org/2000/svg">
	<!ENTITY ns_xlink "http://www.w3.org/1999/xlink">
]>
<svg  version="1.1" xmlns="&ns_svg;" xmlns:xlink="&ns_xlink;" width="200" height="30" viewBox="0 0 200 30"
	 overflow="visible" enable-background="new 0 0 200 30" xml:space="preserve">
<g id="レイヤー_1">
</g>
<g id="product">
	<g>
		<g>
			<polygon fill="#FFD63F" points="14.199,1.496 18.587,10.386 28.398,11.812 21.299,18.732 22.974,28.504 14.199,23.891 
				5.424,28.504 7.099,18.732 0,11.812 9.811,10.386 			"/>
			<polygon fill="#FFD63F" points="57.1,1.496 61.487,10.386 71.299,11.812 64.199,18.732 65.875,28.504 57.1,23.891 48.324,28.504 
				49.999,18.732 42.9,11.812 52.711,10.386 			"/>
			<polygon fill="#FFD63F" points="100,1.496 104.389,10.386 114.199,11.812 107.1,18.732 108.775,28.504 100,23.891 91.225,28.504 
				92.9,18.732 85.801,11.812 95.611,10.386 			"/>
			<polygon fill="#FFD63F" points="142.9,1.496 147.289,10.386 157.1,11.812 150.001,18.732 151.676,28.504 142.9,23.891 
				134.125,28.504 135.801,18.732 128.701,11.812 138.513,10.386 			"/>
			<g>
				<polygon fill="#D8D8D8" points="185.801,1.496 190.189,10.386 200,11.812 192.901,18.732 194.576,28.504 185.801,23.891 
					177.025,28.504 178.701,18.732 171.603,11.812 181.413,10.386 				"/>
				<polyline fill="#FFD63F" points="185.801,23.891 177.025,28.504 178.701,18.732 171.603,11.812 181.413,10.386 185.801,1.496 
									"/>
			</g>
		</g>
	</g>
</g>
</svg>
